<svg width="16" height="20" viewBox="0 0 16 20" fill="none" xmlns="http://www.w3.org/2000/svg">
<path fill-rule="evenodd" clip-rule="evenodd" d="M0.5 3.15789L8 0L15.5 3.15789V11.0526C14.4286 18.9474 8 20 8 20C8 20 1.57143 18.9474 0.5 11.0526V3.15789ZM8.43716 6.05071C8.24671 5.70761 7.7533 5.7076 7.56284 6.05071L6.77945 7.46196C6.70691 7.59262 6.57974 7.68399 6.43276 7.71103L4.83876 8.0043C4.44683 8.0764 4.29263 8.5556 4.56895 8.84274L5.6728 9.98982C5.7783 10.0995 5.82814 10.2512 5.80822 10.402L5.60032 11.9761C5.54863 12.3674 5.94958 12.6615 6.30735 12.4947L7.78867 11.8038C7.92263 11.7414 8.07737 11.7414 8.21133 11.8038L9.69266 12.4947C10.0504 12.6615 10.4514 12.3674 10.3997 11.9761L10.1918 10.402C10.1719 10.2512 10.2217 10.0995 10.3272 9.98982L11.4311 8.84274C11.7074 8.5556 11.5532 8.0764 11.1613 8.0043L9.56725 7.71103C9.42027 7.68399 9.29309 7.59262 9.22056 7.46196L8.43716 6.05071Z" fill="#C4C4C4"/>
</svg>
